<svg id="visual" viewBox="0 0 1903 680" width="1903" height="680" xmlns="http://www.w3.org/2000/svg" xmlns:xlink="http://www.w3.org/1999/xlink" version="1.1"><rect x="0" y="0" width="1903" height="680" fill="#212121"></rect><defs><linearGradient id="grad1_0" x1="64.3%" y1="0%" x2="100%" y2="100%"><stop offset="-5.970588235294112%" stop-color="#ff5c5d" stop-opacity="1"></stop><stop offset="105.97058823529412%" stop-color="#ff5c5d" stop-opacity="1"></stop></linearGradient></defs><defs><linearGradient id="grad1_1" x1="64.3%" y1="0%" x2="100%" y2="100%"><stop offset="-5.970588235294112%" stop-color="#ff5c5d" stop-opacity="1"></stop><stop offset="105.97058823529412%" stop-color="#cf5250" stop-opacity="1"></stop></linearGradient></defs><defs><linearGradient id="grad1_2" x1="64.3%" y1="0%" x2="100%" y2="100%"><stop offset="-5.970588235294112%" stop-color="#a14744" stop-opacity="1"></stop><stop offset="105.97058823529412%" stop-color="#cf5250" stop-opacity="1"></stop></linearGradient></defs><defs><linearGradient id="grad1_3" x1="64.3%" y1="0%" x2="100%" y2="100%"><stop offset="-5.970588235294112%" stop-color="#a14744" stop-opacity="1"></stop><stop offset="105.97058823529412%" stop-color="#753b38" stop-opacity="1"></stop></linearGradient></defs><defs><linearGradient id="grad1_4" x1="64.3%" y1="0%" x2="100%" y2="100%"><stop offset="-5.970588235294112%" stop-color="#4a2f2c" stop-opacity="1"></stop><stop offset="105.97058823529412%" stop-color="#753b38" stop-opacity="1"></stop></linearGradient></defs><defs><linearGradient id="grad1_5" x1="64.3%" y1="0%" x2="100%" y2="100%"><stop offset="-5.970588235294112%" stop-color="#4a2f2c" stop-opacity="1"></stop><stop offset="105.97058823529412%" stop-color="#212121" stop-opacity="1"></stop></linearGradient></defs><defs><linearGradient id="grad2_0" x1="0%" y1="0%" x2="35.7%" y2="100%"><stop offset="-5.970588235294112%" stop-color="#ff5c5d" stop-opacity="1"></stop><stop offset="105.97058823529412%" stop-color="#ff5c5d" stop-opacity="1"></stop></linearGradient></defs><defs><linearGradient id="grad2_1" x1="0%" y1="0%" x2="35.7%" y2="100%"><stop offset="-5.970588235294112%" stop-color="#cf5250" stop-opacity="1"></stop><stop offset="105.97058823529412%" stop-color="#ff5c5d" stop-opacity="1"></stop></linearGradient></defs><defs><linearGradient id="grad2_2" x1="0%" y1="0%" x2="35.7%" y2="100%"><stop offset="-5.970588235294112%" stop-color="#cf5250" stop-opacity="1"></stop><stop offset="105.97058823529412%" stop-color="#a14744" stop-opacity="1"></stop></linearGradient></defs><defs><linearGradient id="grad2_3" x1="0%" y1="0%" x2="35.7%" y2="100%"><stop offset="-5.970588235294112%" stop-color="#753b38" stop-opacity="1"></stop><stop offset="105.97058823529412%" stop-color="#a14744" stop-opacity="1"></stop></linearGradient></defs><defs><linearGradient id="grad2_4" x1="0%" y1="0%" x2="35.7%" y2="100%"><stop offset="-5.970588235294112%" stop-color="#753b38" stop-opacity="1"></stop><stop offset="105.97058823529412%" stop-color="#4a2f2c" stop-opacity="1"></stop></linearGradient></defs><defs><linearGradient id="grad2_5" x1="0%" y1="0%" x2="35.7%" y2="100%"><stop offset="-5.970588235294112%" stop-color="#212121" stop-opacity="1"></stop><stop offset="105.97058823529412%" stop-color="#4a2f2c" stop-opacity="1"></stop></linearGradient></defs><g transform="translate(1903, 0)"><path d="M0 442C-56.9 435.9 -113.8 429.9 -169.1 408.4C-224.5 386.8 -278.3 349.8 -300.5 300.5C-322.7 251.2 -313.4 189.5 -331.7 137.4C-350 85.2 -396 42.6 -442 0L0 0Z" fill="#362827"></path><path d="M0 368.3C-47.4 363.3 -94.8 358.2 -141 340.3C-187.1 322.4 -231.9 291.5 -250.4 250.4C-268.9 209.3 -261.1 157.9 -276.4 114.5C-291.7 71 -330 35.5 -368.3 0L0 0Z" fill="#5f3532"></path><path d="M0 294.7C-37.9 290.6 -75.9 286.6 -112.8 272.2C-149.7 257.9 -185.5 233.2 -200.3 200.3C-215.2 167.5 -208.9 126.4 -221.1 91.6C-233.3 56.8 -264 28.4 -294.7 0L0 0Z" fill="#8a413e"></path><path d="M0 221C-28.4 218 -56.9 214.9 -84.6 204.2C-112.2 193.4 -139.2 174.9 -150.3 150.3C-161.4 125.6 -156.7 94.8 -165.8 68.7C-175 42.6 -198 21.3 -221 0L0 0Z" fill="#b84c4a"></path><path d="M0 147.3C-19 145.3 -37.9 143.3 -56.4 136.1C-74.8 128.9 -92.8 116.6 -100.2 100.2C-107.6 83.7 -104.5 63.2 -110.6 45.8C-116.7 28.4 -132 14.2 -147.3 0L0 0Z" fill="#e75757"></path><path d="M0 73.7C-9.5 72.7 -19 71.6 -28.2 68.1C-37.4 64.5 -46.4 58.3 -50.1 50.1C-53.8 41.9 -52.2 31.6 -55.3 22.9C-58.3 14.2 -66 7.1 -73.7 0L0 0Z" fill="#ff5c5d"></path></g><g transform="translate(0, 680)"><path d="M0 -442C11.3 -326.2 22.5 -210.5 85.3 -206C148.1 -201.6 262.4 -308.4 312.5 -312.5C362.6 -316.7 348.5 -218.1 359.4 -148.9C370.3 -79.7 406.1 -39.8 442 0L0 0Z" fill="#362827"></path><path d="M0 -368.3C9.4 -271.9 18.8 -175.4 71.1 -171.7C123.4 -168 218.7 -257 260.5 -260.5C302.2 -263.9 290.4 -181.7 299.5 -124.1C308.6 -66.4 338.4 -33.2 368.3 0L0 0Z" fill="#5f3532"></path><path d="M0 -294.7C7.5 -217.5 15 -140.3 56.9 -137.4C98.8 -134.4 175 -205.6 208.4 -208.4C241.8 -211.1 232.3 -145.4 239.6 -99.2C246.8 -53.1 270.8 -26.6 294.7 0L0 0Z" fill="#8a413e"></path><path d="M0 -221C5.6 -163.1 11.3 -105.2 42.7 -103C74.1 -100.8 131.2 -154.2 156.3 -156.3C181.3 -158.3 174.3 -109 179.7 -74.4C185.1 -39.8 203.1 -19.9 221 0L0 0Z" fill="#b84c4a"></path><path d="M0 -147.3C3.8 -108.7 7.5 -70.2 28.4 -68.7C49.4 -67.2 87.5 -102.8 104.2 -104.2C120.9 -105.6 116.2 -72.7 119.8 -49.6C123.4 -26.6 135.4 -13.3 147.3 0L0 0Z" fill="#e75757"></path><path d="M0 -73.7C1.9 -54.4 3.8 -35.1 14.2 -34.3C24.7 -33.6 43.7 -51.4 52.1 -52.1C60.4 -52.8 58.1 -36.3 59.9 -24.8C61.7 -13.3 67.7 -6.6 73.7 0L0 0Z" fill="#ff5c5d"></path></g></svg>